<?xml version="1.0" encoding="UTF-8" standalone="no"?>
<svg
   xmlns:dc="http://purl.org/dc/elements/1.1/"
   xmlns:cc="http://creativecommons.org/ns#"
   xmlns:rdf="http://www.w3.org/1999/02/22-rdf-syntax-ns#"
   xmlns:svg="http://www.w3.org/2000/svg"
   xmlns="http://www.w3.org/2000/svg"
   xmlns:xlink="http://www.w3.org/1999/xlink"
   xmlns:sodipodi="http://sodipodi.sourceforge.net/DTD/sodipodi-0.dtd"
   xmlns:inkscape="http://www.inkscape.org/namespaces/inkscape"
   width="550"
   height="250"
   viewBox="0 0 145.52084 66.145832"
   version="1.1"
   id="svg8"
   inkscape:version="1.0.1 (3bc2e813f5, 2020-09-07)"
   sodipodi:docname="ds_logo.svg">
  <defs
     id="defs2">
    <linearGradient
       inkscape:collect="always"
       id="linearGradient868">
      <stop
         style="stop-color:#00aa00;stop-opacity:1;"
         offset="0"
         id="stop864" />
      <stop
         style="stop-color:#0066ff;stop-opacity:1"
         offset="1"
         id="stop866" />
    </linearGradient>
    <linearGradient
       inkscape:collect="always"
       xlink:href="#linearGradient868"
       id="linearGradient872"
       gradientUnits="userSpaceOnUse"
       x1="12.810459"
       y1="31.046124"
       x2="50.114464"
       y2="58.953876"
       gradientTransform="matrix(0.75523066,0,0,1.009509,3.0029195,-0.42790752)" />
  </defs>
  <sodipodi:namedview
     id="base"
     pagecolor="#ffffff"
     bordercolor="#666666"
     borderopacity="1.0"
     inkscape:pageopacity="0.0"
     inkscape:pageshadow="2"
     inkscape:zoom="0.98994949"
     inkscape:cx="508.24458"
     inkscape:cy="147.43474"
     inkscape:document-units="mm"
     inkscape:current-layer="layer1"
     inkscape:document-rotation="0"
     showgrid="false"
     units="px"
     inkscape:window-width="1920"
     inkscape:window-height="1016"
     inkscape:window-x="0"
     inkscape:window-y="0"
     inkscape:window-maximized="1" />
  <metadata
     id="metadata5">
    <rdf:RDF>
      <cc:Work
         rdf:about="">
        <dc:format>image/svg+xml</dc:format>
        <dc:type
           rdf:resource="http://purl.org/dc/dcmitype/StillImage" />
        <dc:title></dc:title>
      </cc:Work>
    </rdf:RDF>
  </metadata>
  <g
     inkscape:label="Layer 1"
     inkscape:groupmode="layer"
     id="layer1">
    <g
       id="g862"
       transform="matrix(1.0932658,0,0,0.97572904,-5.4329323,-21.930831)">
      <path
         id="path847"
         style="fill:none;stroke:url(#linearGradient872);stroke-width:3.31605;stroke-linecap:butt;stroke-linejoin:miter;stroke-miterlimit:4;stroke-dasharray:none;stroke-opacity:1"
         d="m 12.677771,59.086563 c 9.391043,0 18.782085,0 28.173128,0 0,-6.284526 0,-12.569052 0,-18.853578 -3.054201,-3.106517 -6.108401,-6.213033 -9.162602,-9.31955 -6.336842,0 -12.673684,0 -19.010526,0 0,9.391043 0,18.782085 0,28.173128 z" />
      <g
         aria-label="ANIEL"
         id="text851"
         style="font-style:normal;font-variant:normal;font-weight:normal;font-stretch:normal;font-size:28.8558px;line-height:1.25;font-family:'Nimbus Mono PS';-inkscape-font-specification:'Nimbus Mono PS, Normal';font-variant-ligatures:normal;font-variant-caps:normal;font-variant-numeric:normal;font-variant-east-asian:normal;fill:#555555;fill-opacity:1;stroke:none;stroke-width:0.264583;stroke-opacity:1">
        <path
           id="path882"
           style="font-style:normal;font-variant:normal;font-weight:normal;font-stretch:normal;font-size:28.8558px;font-family:'Nimbus Mono PS';-inkscape-font-specification:'Nimbus Mono PS, Normal';font-variant-ligatures:normal;font-variant-caps:normal;font-variant-numeric:normal;font-variant-east-asian:normal;fill:#555555;fill-opacity:1;stroke:none;stroke-width:0.264583;stroke-opacity:1"
           d="m 57.80866,54.551338 c 0.05137,1.236149 2.657376,4.228716 0.342278,3.837822 -3.908467,0.59181 0.450218,2.074045 2.272934,1.471646 3.189764,0.215864 2.066267,-1.380197 0.240724,-1.998665 -1.827271,-4.74905 -3.654543,-9.498101 -5.481814,-14.247151 -2.2584,0.217558 -4.819593,-0.466704 -6.865877,0.401727 -0.418122,2.452202 4.781557,-0.233188 3.796615,1.862376 -1.573935,4.170023 -3.147869,8.340045 -4.721804,12.510067 -3.871209,0.609928 0.496132,2.06863 2.297799,1.471646 3.406111,0.366927 1.701187,-2.275316 -0.797297,-1.471646 0.887616,-1.235614 0.554844,-4.233797 2.572158,-3.837822 2.114761,0 4.229523,0 6.344284,0 z m -0.577116,-1.471646 c -2.106473,0 -4.212947,0 -6.31942,0 1.000334,-2.664352 2.000669,-5.328704 3.001003,-7.993056 1.084055,1.413507 1.529286,3.758608 2.367324,5.530881 0.317031,0.820725 0.634062,1.64145 0.951093,2.462175 z" />
        <path
           id="path884"
           style="font-style:normal;font-variant:normal;font-weight:normal;font-stretch:normal;font-size:28.8558px;font-family:'Nimbus Mono PS';-inkscape-font-specification:'Nimbus Mono PS, Normal';font-variant-ligatures:normal;font-variant-caps:normal;font-variant-numeric:normal;font-variant-east-asian:normal;fill:#555555;fill-opacity:1;stroke:none;stroke-width:0.264583;stroke-opacity:1"
           d="m 77.488272,59.860806 c 0,-4.924723 0,-9.849447 0,-14.77417 3.837647,-0.37119 -0.14715,-2.151471 -1.986601,-1.471646 -3.343338,-0.561858 -2.352176,2.257518 0.471443,1.471646 0.03417,4.106718 0.0049,8.276856 0.01466,12.407994 -2.847106,-4.626547 -5.694211,-9.253093 -8.541317,-13.87964 -1.373919,-0.367089 -6.107709,0.278421 -2.891796,1.471646 2.185938,-0.491145 0.699756,2.689831 1.131592,3.952787 0,3.116579 0,6.233158 0,9.349737 -3.909267,0.585662 0.445458,2.07702 2.268943,1.471646 3.337052,0.374761 1.712368,-2.271621 -0.768442,-1.471646 0,-4.135998 0,-8.271997 0,-12.407995 2.847106,4.626547 5.694211,9.253094 8.541317,13.879641 0.586735,0 1.173469,0 1.760204,0 z" />
        <path
           id="path886"
           style="font-style:normal;font-variant:normal;font-weight:normal;font-stretch:normal;font-size:28.8558px;font-family:'Nimbus Mono PS';-inkscape-font-specification:'Nimbus Mono PS, Normal';font-variant-ligatures:normal;font-variant-caps:normal;font-variant-numeric:normal;font-variant-east-asian:normal;fill:#555555;fill-opacity:1;stroke:none;stroke-width:0.264583;stroke-opacity:1"
           d="m 89.578809,45.086636 c 1.397743,-0.310147 5.144113,0.895022 4.580858,-1.294904 -3.27499,-0.395445 -6.637692,-0.07134 -9.948037,-0.176742 -2.671251,1.655775 2.364363,1.598305 3.670445,1.471646 0.45857,1.300893 0.0649,3.454025 0.196232,5.082155 0,2.740123 0,5.480246 0,8.220369 -1.371181,-0.09126 -6.413559,-0.264332 -3.866677,1.471646 3.305245,-0.117365 6.674028,0.241289 9.937216,-0.19117 0.606365,-2.171265 -3.188939,-0.969356 -4.570037,-1.280476 0,-4.434175 0,-8.868349 0,-13.302524 z" />
        <path
           id="path888"
           style="font-style:normal;font-variant:normal;font-weight:normal;font-stretch:normal;font-size:28.8558px;font-family:'Nimbus Mono PS';-inkscape-font-specification:'Nimbus Mono PS, Normal';font-variant-ligatures:normal;font-variant-caps:normal;font-variant-numeric:normal;font-variant-east-asian:normal;fill:#555555;fill-opacity:1;stroke:none;stroke-width:0.264583;stroke-opacity:1"
           d="m 102.41959,52.185163 c 1.74697,0.232296 4.53667,-0.932506 4.05785,1.78906 2.06049,0.291686 1.43857,-3.858215 0.88326,-5.250404 -1.20449,1.108336 -1.48032,2.734777 -4.18019,1.989698 -1.63293,-0.126538 -0.35654,-3.162385 -0.76092,-4.517471 -0.35178,-2.133295 2.87515,-0.687872 4.23513,-1.10941 1.42401,0.347299 4.55299,-1.010376 3.90221,1.41171 -0.283,3.542514 2.34002,1.366345 1.5005,-1.044568 0.82474,-2.567037 -1.74875,-1.735845 -3.3881,-1.838788 -3.27775,0.111352 -6.61227,-0.227057 -9.853104,0.176742 -0.462968,1.981732 3.499434,0.537512 2.102864,3.553639 0,3.681263 0,7.362526 0,11.043789 -3.454951,-0.396135 -1.812602,2.31504 0.8448,1.471646 3.63317,0 7.26634,0 10.89951,0 -0.201,-1.821138 0.45117,-3.948046 -0.42607,-5.538962 -2.49285,-0.253309 0.29465,4.395406 -1.92146,4.067316 -2.63209,0 -5.26419,0 -7.89628,0 0,-2.067999 0,-4.135998 0,-6.203997 z" />
        <path
           id="path890"
           style="font-style:normal;font-variant:normal;font-weight:normal;font-stretch:normal;font-size:28.8558px;font-family:'Nimbus Mono PS';-inkscape-font-specification:'Nimbus Mono PS, Normal';font-variant-ligatures:normal;font-variant-caps:normal;font-variant-numeric:normal;font-variant-east-asian:normal;fill:#555555;fill-opacity:1;stroke:none;stroke-width:0.264583;stroke-opacity:1"
           d="m 121.52209,45.086636 c 1.85968,0.744039 5.51811,-1.235266 1.77885,-1.471646 -2.231,0.201203 -4.75124,-0.442054 -6.76955,0.401727 -0.20013,2.434789 4.53123,-0.443265 3.4902,2.481629 0,3.963604 0,7.927209 0,11.890814 -2.17615,-0.826786 -5.30254,1.54865 -1.49651,1.471646 4.01924,0 8.03849,0 12.05773,0 -0.10836,-2.167503 0.22889,-4.397906 -0.19117,-6.521412 -2.29385,-0.269225 -0.94751,3.424568 -1.30933,5.049766 -2.52007,0 -5.04015,0 -7.56022,0 0,-4.434175 0,-8.868349 0,-13.302524 z" />
      </g>
      <g
         aria-label="SHAMANY"
         id="text855"
         style="font-style:normal;font-variant:normal;font-weight:normal;font-stretch:normal;font-size:28.8558px;line-height:1.25;font-family:FreeMono;-inkscape-font-specification:'FreeMono, Normal';font-variant-ligatures:normal;font-variant-caps:normal;font-variant-numeric:normal;font-variant-east-asian:normal;letter-spacing:0.584915px;word-spacing:0px;fill:#555555;fill-opacity:1;stroke:none;stroke-width:0.264583">
        <path
           id="path893"
           style="font-style:normal;font-variant:normal;font-weight:normal;font-stretch:normal;font-size:28.8558px;font-family:FreeMono;-inkscape-font-specification:'FreeMono, Normal';font-variant-ligatures:normal;font-variant-caps:normal;font-variant-numeric:normal;font-variant-east-asian:normal;fill:#555555;fill-opacity:1;stroke-width:0.264583"
           d="m 22.493594,78.709246 c -0.757433,-5.317023 -11.325847,-1.811908 -9.976893,-8.645919 0.808194,-4.934234 7.880014,-3.318777 9.428633,-2.405852 1.622618,-2.834704 1.778802,5.641129 0,3.058714 -0.730049,-6.124387 -12.4567234,-1.692188 -6.66569,2.690804 3.619574,0.908783 10.389573,1.831741 8.065196,7.278875 -1.740299,5.083675 -9.319098,1.707877 -10.402516,1.659209 -1.376204,2.435524 -2.018485,-4.423908 -0.158707,-3.837821 0.251524,5.029286 9.416154,5.331533 9.709977,0.20199 z" />
        <path
           id="path895"
           style="font-style:normal;font-variant:normal;font-weight:normal;font-stretch:normal;font-size:28.8558px;font-family:FreeMono;-inkscape-font-specification:'FreeMono, Normal';font-variant-ligatures:normal;font-variant-caps:normal;font-variant-numeric:normal;font-variant-east-asian:normal;fill:#555555;fill-opacity:1;stroke-width:0.264583"
           d="m 39.612839,75.275406 c -2.597022,0 -5.194044,0 -7.791066,0 0,2.221897 0,4.443793 0,6.66569 3.515241,-0.345179 1.536774,1.917016 -0.982864,1.183088 -3.252104,0.16098 -1.404353,-1.059472 -0.200224,-1.747772 0,-4.438319 0,-8.876637 0,-13.314956 -3.474223,-0.700914 1.119071,-1.61427 2.666708,-1.183088 2.165704,1.529159 -3.14462,0.482927 -1.48362,3.441823 0.340979,1.386967 -1.005766,4.461657 1.41171,3.772127 2.126452,0 4.252904,0 6.379356,0 0,-2.010287 0,-4.020575 0,-6.030862 -3.513405,0.335533 -1.539608,-1.91731 0.982864,-1.183088 3.458763,0.222926 -0.979717,1.11425 0.200224,3.441823 0,3.873635 0,7.74727 0,11.620905 3.681213,-0.09783 0.717025,1.891238 -1.496052,1.183088 -3.433928,-0.05182 -0.577434,-1.108598 0.312964,-1.747772 0,-2.033669 0,-4.067337 0,-6.101006 z" />
        <path
           id="path897"
           style="font-style:normal;font-variant:normal;font-weight:normal;font-stretch:normal;font-size:28.8558px;font-family:FreeMono;-inkscape-font-specification:'FreeMono, Normal';font-variant-ligatures:normal;font-variant-caps:normal;font-variant-numeric:normal;font-variant-east-asian:normal;fill:#555555;fill-opacity:1;stroke-width:0.264583"
           d="m 57.251489,77.699293 c -2.558548,0 -5.117095,0 -7.675643,0 -0.07891,1.237853 -2.185066,3.890708 -0.99353,4.241803 3.280174,-0.521201 2.185028,1.897788 -0.54381,1.183088 -2.276306,0.502284 -3.703251,-1.003408 -1.105488,-1.447701 1.688905,-4.538342 3.37781,-9.076685 5.066715,-13.615027 -1.415346,0.311183 -6.167761,-0.207673 -2.898012,-1.183088 1.773966,0 3.547933,0 5.321899,0 1.894864,5.020909 3.789729,10.041819 5.684593,15.062728 3.725187,0.228886 -0.152397,1.801771 -2.038096,1.183088 -3.218851,0.334169 -1.566355,-1.878747 0.797297,-1.183088 -0.538642,-1.413934 -1.077283,-2.827869 -1.615925,-4.241803 z m -0.432837,-1.183088 c -1.077283,-2.81825 -2.154567,-5.636499 -3.23185,-8.454749 -1.257953,0.697483 -1.305444,3.131217 -2.09287,4.503609 -0.05126,1.276787 -2.614926,4.305145 -0.327025,3.95114 1.883915,0 3.76783,0 5.651745,0 z" />
        <path
           id="path899"
           style="font-style:normal;font-variant:normal;font-weight:normal;font-stretch:normal;font-size:28.8558px;font-family:FreeMono;-inkscape-font-specification:'FreeMono, Normal';font-variant-ligatures:normal;font-variant-caps:normal;font-variant-numeric:normal;font-variant-east-asian:normal;fill:#555555;fill-opacity:1;stroke-width:0.264583"
           d="m 72.206547,78.247553 c -2.111102,0.54314 -2.006176,-2.342324 -2.950725,-3.604058 -0.988238,-2.194013 -1.976476,-4.388026 -2.964714,-6.582039 -0.537789,1.233212 -0.0776,3.4644 -0.230847,5.082155 0,2.932495 0,5.86499 0,8.797485 3.037202,-0.664725 3.372215,1.763892 0.158935,1.183088 -2.921667,0.371109 -3.275234,-0.74478 -1.342023,-1.747772 0,-4.438319 0,-8.876637 0,-13.314956 -3.532539,-0.386505 1.105444,-2.027914 2.251439,-0.925725 1.471417,3.261485 2.942834,6.522971 4.414251,9.784456 1.481265,-3.347273 2.962529,-6.694546 4.443794,-10.041819 2.047752,-0.421047 5.024002,0.505789 2.164185,1.46543 0,4.532433 0,9.064865 0,13.597298 3.626403,0.279575 -0.311645,1.788447 -2.124664,1.183088 -3.846809,-0.287344 0.15243,-1.129 0.941576,-1.747772 0,-4.438319 0,-8.876637 0,-13.314956 -1.192112,1.470471 -1.791282,3.8536 -2.755077,5.675498 -0.66871,1.503533 -1.33742,3.007066 -2.00613,4.510599 z" />
        <path
           id="path901"
           style="font-style:normal;font-variant:normal;font-weight:normal;font-stretch:normal;font-size:28.8558px;font-family:FreeMono;-inkscape-font-specification:'FreeMono, Normal';font-variant-ligatures:normal;font-variant-caps:normal;font-variant-numeric:normal;font-variant-east-asian:normal;fill:#555555;fill-opacity:1;stroke-width:0.264583"
           d="m 93.048192,77.699293 c -2.558548,0 -5.117095,0 -7.675643,0 -0.07891,1.237853 -2.185066,3.890708 -0.993529,4.241803 3.280174,-0.5212 2.185027,1.897788 -0.543811,1.183088 -2.276305,0.502284 -3.70325,-1.003408 -1.105488,-1.447701 1.688905,-4.538342 3.37781,-9.076685 5.066715,-13.615027 -1.415345,0.311182 -6.16776,-0.207673 -2.898012,-1.183088 1.773967,0 3.547933,0 5.3219,0 1.894864,5.020909 3.789728,10.041819 5.684592,15.062728 3.725189,0.228886 -0.152397,1.801771 -2.038096,1.183088 -3.218851,0.334169 -1.566355,-1.878747 0.797297,-1.183088 -0.538642,-1.413934 -1.077283,-2.827869 -1.615925,-4.241803 z m -0.432837,-1.183088 c -1.077283,-2.81825 -2.154567,-5.636499 -3.23185,-8.454749 -1.257953,0.697483 -1.305444,3.131217 -2.09287,4.503609 -0.05126,1.276787 -2.614926,4.305145 -0.327025,3.95114 1.883915,0 3.76783,0 5.651745,0 z" />
        <path
           id="path903"
           style="font-style:normal;font-variant:normal;font-weight:normal;font-stretch:normal;font-size:28.8558px;font-family:FreeMono;-inkscape-font-specification:'FreeMono, Normal';font-variant-ligatures:normal;font-variant-caps:normal;font-variant-numeric:normal;font-variant-east-asian:normal;fill:#555555;fill-opacity:1;stroke-width:0.264583"
           d="m 113.05302,83.124184 c -2.08273,0.637012 -2.36329,-1.923037 -3.40083,-3.140211 -2.30023,-3.801038 -4.60046,-7.602075 -6.90069,-11.403113 0,4.453412 0,8.906824 0,13.360236 3.01437,-0.67232 3.40733,1.762457 0.18779,1.183088 -2.91654,0.368262 -3.329247,-0.735167 -1.37088,-1.747772 0,-4.438319 0,-8.876637 0,-13.314956 -3.513406,0.335532 -1.5396,-1.91731 0.98287,-1.183088 1.47966,0.51947 1.9336,2.858571 3.00267,4.10643 2.10533,3.478964 4.21065,6.957929 6.31598,10.436893 0,-4.453412 0,-8.906823 0,-13.360235 -3.03388,0.660997 -3.37546,-1.770067 -0.15894,-1.183088 2.92539,-0.370656 3.27193,0.734102 1.34203,1.747772 0,4.832681 0,9.665363 0,14.498044 z" />
        <path
           id="path905"
           style="font-style:normal;font-variant:normal;font-weight:normal;font-stretch:normal;font-size:28.8558px;font-family:FreeMono;-inkscape-font-specification:'FreeMono, Normal';font-variant-ligatures:normal;font-variant-caps:normal;font-variant-numeric:normal;font-variant-east-asian:normal;fill:#555555;fill-opacity:1;stroke-width:0.264583"
           d="m 125.78618,75.79481 c 0,2.048762 0,4.097524 0,6.146286 1.94663,-0.637614 5.65276,0.996772 1.90049,1.183088 -2.22733,-0.09175 -4.50224,0.189615 -6.69777,-0.151493 -0.49018,-2.445744 4.66909,0.543295 3.61419,-2.443305 -0.19498,-2.177862 0.66282,-4.674977 -1.09772,-6.378091 -1.35582,-2.029946 -2.71165,-4.059893 -4.06747,-6.089839 -3.3777,-0.64444 0.98162,-1.636295 2.51046,-1.183088 1.98634,1.357796 -2.78301,0.793131 0.003,2.825316 1.09549,1.636013 2.19097,3.272025 3.28645,4.908038 1.43317,-2.183422 2.86634,-4.366844 4.29951,-6.550266 -3.57701,0.0112 -0.40058,-1.876846 1.66919,-1.183088 2.5902,0.658632 -1.77988,1.543916 -1.89168,3.543097 -1.17625,1.791115 -2.35251,3.58223 -3.52876,5.373345 z" />
      </g>
    </g>
  </g>
</svg>
